# File created by Blade
# Date/Time:  Tue Jan 27 19:58:39 2015
#---------------------------------------------------------
:version 1.10
:name HOM
:units
  mass 1.0
  length 1.000000
  angle deg
:documentation
     Acclaim Skeleton File
:root
   axis xyz
   order TX TY TZ RX RY RZ
   position 0.000000 0.000000 0.000000
   orientation 0 0 0
:bonedata
   begin
      id 1
      name Spine_dum
      direction 0.000000 1.000000 0.000000
      length 6.116652
      axis 0.0 0.0 0.0 xyz
   end
   begin
      id 2
      name LeftUpLeg_dum
      direction 1.000000 0.000000 0.000000
      length 4.711765
      axis 0.0 0.0 0.0 xyz
   end
   begin
      id 3
      name RightUpLeg_dum
      direction -1.000000 0.000000 0.000000
      length 4.711765
      axis 0.0 0.0 0.0 xyz
   end
   begin
      id 4
      name Spine
      direction 0.000000 1.000000 0.000000
      length 0.000000
      axis 0.0 0.0 0.0 xyz
      dof rx ry rz
   end
   begin
      id 5
      name Spine_dum1
      direction 0.000000 1.000000 0.000000
      length 15.225563
      axis 0.0 0.0 0.0 xyz
   end
   begin
      id 6
      name Spine_dum2
      direction 0.000000 1.000000 0.000000
      length 8.977654
      axis 0.0 0.0 0.0 xyz
   end
   begin
      id 7
      name Spine_dum3
      direction 0.000000 1.000000 0.000000
      length 8.977654
      axis 0.0 0.0 0.0 xyz
   end
   begin
      id 8
      name Head
      direction 0.000000 1.000000 0.000000
      length 4.527550
      axis 0.0 0.0 0.0 xyz
      dof rx ry rz
   end
   begin
      id 9
      name LeftShoulder
      direction 1.000000 0.000000 0.000000
      length 7.110130
      axis 0.0 0.0 -90.0 xyz
      dof rx ry rz
   end
   begin
      id 10
      name LeftArm
      direction 1.000000 0.000000 0.000000
      length 10.398341
      axis 0.0 0.0 -90.0 xyz
      dof rx ry rz
   end
   begin
      id 11
      name LeftForeArm
      direction 1.000000 0.000000 0.000000
      length 8.888997
      axis 0.0 0.0 -90.0 xyz
      dof ry rz rx
   end
   begin
      id 12
      name LeftHand
      direction 0.000000 0.000000 0.000000
      length 0.000000
      axis 0.0 0.0 -90.0 xyz
      dof rx ry rz
   end
   begin
      id 13
      name LeftHand_dum1
      direction 0.000000 0.000000 0.000000
      length 0.000000
      axis 0.0 0.0 -90.0 xyz
   end
   begin
      id 14
      name LeftHand_dum2
      direction 1.000000 0.000000 0.000000
      length 3.937000
      axis 0.0 0.0 -90.0 xyz
   end
   begin
      id 15
      name LeftHandThumb1
      direction 0.000000 0.000000 1.000000
      length 3.937000
      axis 0.0 0.0 -90.0 xyz
      dof rx rz ry
   end
   begin
      id 16
      name RightShoulder
      direction -1.000000 0.000000 0.000000
      length 7.110130
      axis 0.0 0.0 90.0 xyz
      dof rx ry rz
   end
   begin
      id 17
      name RightArm
      direction -1.000000 0.000000 0.000000
      length 10.398341
      axis 0.0 0.0 90.0 xyz
      dof rx ry rz
   end
   begin
      id 18
      name RightForeArm
      direction -1.000000 0.000000 0.000000
      length 8.888997
      axis 0.0 0.0 90.0 xyz
      dof ry rz rx
   end
   begin
      id 19
      name RightHand
      direction 0.000000 0.000000 0.000000
      length 0.000000
      axis 0.0 0.0 90.0 xyz
      dof rx ry rz
   end
   begin
      id 20
      name RightHand_dum1
      direction 0.000000 0.000000 0.000000
      length 0.000000
      axis 0.0 0.0 90.0 xyz
   end
   begin
      id 21
      name RightHand_dum2
      direction -1.000000 0.000000 0.000000
      length 3.937000
      axis 0.0 0.0 90.0 xyz
   end
   begin
      id 22
      name RightHandThumb1
      direction 0.000000 0.000000 1.000000
      length 3.937000
      axis 0.0 0.0 90.0 xyz
      dof rx rz ry
   end
   begin
      id 23
      name LeftUpLeg
      direction 0.000000 -1.000000 0.000000
      length 15.510451
      axis 0.0 0.0 0.0 xyz
      dof rx ry rz
   end
   begin
      id 24
      name LeftLeg
      direction 0.000000 -1.000000 0.000000
      length 14.858061
      axis 0.0 0.0 0.0 xyz
      dof rx ry rz
   end
   begin
      id 25
      name LeftFoot
      direction 0.000000 -0.258819 0.965926
      length 5.128852
      axis 15.0 0.0 0.0 xyz
      dof rx ry rz
   end
   begin
      id 26
      name LeftToeBase
      direction 0.000000 0.000000 1.000000
      length 2.952750
      axis 0.0 0.0 0.0 xyz
      dof rx ry rz
   end
   begin
      id 27
      name RightUpLeg
      direction 0.000000 -1.000000 0.000000
      length 15.510451
      axis 0.0 0.0 0.0 xyz
      dof rx ry rz
   end
   begin
      id 28
      name RightLeg
      direction 0.000000 -1.000000 0.000000
      length 14.858061
      axis 0.0 0.0 0.0 xyz
      dof rx ry rz
   end
   begin
      id 29
      name RightFoot
      direction 0.000000 -0.258819 0.965926
      length 5.128852
      axis 15.0 0.0 0.0 xyz
      dof rx ry rz
   end
   begin
      id 30
      name RightToeBase
      direction 0.000000 0.000000 1.000000
      length 2.952750
      axis 0.0 0.0 0.0 xyz
      dof rx ry rz
   end
:hierarchy
   begin
      root Spine_dum LeftUpLeg_dum RightUpLeg_dum
      Spine_dum Spine
      LeftUpLeg_dum LeftUpLeg
      RightUpLeg_dum RightUpLeg
      Spine Spine_dum1 Spine_dum2 Spine_dum3
      Spine_dum1 Head
      Spine_dum2 LeftShoulder
      Spine_dum3 RightShoulder
      LeftShoulder LeftArm
      LeftArm LeftForeArm
      LeftForeArm LeftHand
      LeftHand LeftHand_dum1 LeftHand_dum2
      LeftHand_dum1 LeftHandThumb1
      RightShoulder RightArm
      RightArm RightForeArm
      RightForeArm RightHand
      RightHand RightHand_dum1 RightHand_dum2
      RightHand_dum1 RightHandThumb1
      LeftUpLeg LeftLeg
      LeftLeg LeftFoot
      LeftFoot LeftToeBase
      RightUpLeg RightLeg
      RightLeg RightFoot
      RightFoot RightToeBase
   end

# File created by Blade
# Date/Time:  Tue Jan 27 19:58:31 2015
# Frame Rate: 120.000 fps
#------------------------------------------------------
:FULLY-SPECIFIED
:DEGREES
847
root 6.774319 32.432465 2.899071 -11.672632 -0.256640 -7.327516
Spine 9.776376 9.573731 11.266141
Head 10.962883 -11.465183 -3.203525
LeftShoulder -17.332779 4.708518 27.387767
LeftArm -10.868857 -6.179341 -83.765769
LeftForeArm -6.880282 0.000000 116.370864
LeftHand 11.685946 -0.000000 -4.097087
LeftHandThumb1 -26.253704 0.000000 33.147579
RightShoulder -20.600314 -20.028527 -25.967610
RightArm 6.932106 -18.856197 92.291030
RightForeArm -8.001887 -0.000000 16.326148
RightHand 17.919646 -0.000000 7.951596
RightHandThumb1 -24.326973 -0.000000 -32.862282
LeftUpLeg 13.902899 7.116173 -1.464230
LeftLeg 6.466145 -0.000000 -0.000000
LeftFoot -21.204744 17.781420 -15.138049
LeftToeBase 17.679555 -0.000000 -0.000000
RightUpLeg -76.470816 3.934258 10.400548
RightLeg 111.146636 -0.000000 -0.000000
RightFoot 21.743686 -33.321255 23.175093
RightToeBase 9.728962 -0.000000 -0.000000
848
root 6.780479 32.443073 2.913173 -11.587967 -0.652074 -7.236333
Spine 9.672913 9.840320 11.194137
Head 11.071540 -11.353952 -3.147836
LeftShoulder -17.382469 4.807504 27.384352
LeftArm -10.975918 -6.275810 -83.785930
LeftForeArm -6.843591 -0.000000 116.412132
LeftHand 11.672429 0.000000 -4.171883
LeftHandThumb1 -26.253704 0.000000 33.147579
RightShoulder -20.557872 -19.929713 -25.934672
RightArm 6.978268 -18.836214 92.412687
RightForeArm -8.225844 -0.000000 16.252148
RightHand 17.934583 -0.000000 7.949166
RightHandThumb1 -24.326973 -0.000000 -32.862282
LeftUpLeg 13.973711 6.586135 -1.614167
LeftLeg 6.397821 -0.000000 -0.000000
LeftFoot -20.803379 17.680942 -14.952687
LeftToeBase 17.137461 -0.000000 -0.000000
RightUpLeg -76.233038 3.918294 10.758687
RightLeg 111.120792 -0.000000 -0.000000
RightFoot 21.872178 -33.417329 22.892993
RightToeBase 8.361681 -0.000000 -0.000000
849
root 6.780420 32.456362 2.927339 -11.513778 -1.060984 -7.166512
Spine 9.582656 10.244050 11.124459
Head 11.180465 -11.384532 -2.992780
LeftShoulder -17.357533 4.830633 27.440086
LeftArm -11.089450 -6.345054 -83.852194
LeftForeArm -6.780843 -0.000000 116.462902
LeftHand 11.633554 -0.000000 -4.359750
LeftHandThumb1 -26.253704 0.000000 33.147579
RightShoulder -20.625771 -19.903080 -25.799941
RightArm 7.041683 -19.574674 92.326353
RightForeArm -7.483349 -0.000000 16.330186
RightHand 17.818366 0.000000 7.703911
RightHandThumb1 -24.326973 -0.000000 -32.862282
LeftUpLeg 14.091481 6.021039 -1.724986
LeftLeg 6.240433 -0.000000 -0.000000
LeftFoot -20.411920 17.688965 -14.810391
LeftToeBase 16.642142 -0.000000 -0.000000
RightUpLeg -75.955962 3.969652 11.123842
RightLeg 111.070093 -0.000000 -0.000000
RightFoot 21.919919 -33.396405 22.844426
RightToeBase 8.055329 -0.000000 -0.000000
850
root 6.779267 32.472141 2.943591 -11.455922 -1.427844 -7.089776
Spine 9.494921 10.586464 11.033502
Head 11.292723 -11.415424 -2.866251
LeftShoulder -17.396644 4.905977 27.492138
LeftArm -11.137675 -6.377620 -83.958240
LeftForeArm -6.657010 -0.000000 116.480137
LeftHand 11.627924 0.000000 -4.579615
LeftHandThumb1 -26.253704 0.000000 33.147579
RightShoulder -20.618654 -19.869469 -25.724896
RightArm 7.033729 -19.120387 92.575035
RightForeArm -8.082281 -0.000000 16.292285
RightHand 17.858579 -0.000000 8.049865
RightHandThumb1 -24.326973 -0.000000 -32.862282
LeftUpLeg 14.210578 5.384534 -1.833024
LeftLeg 6.141595 -0.000000 -0.000000
LeftFoot -20.159696 17.512555 -14.966860
LeftToeBase 16.410619 -0.000000 -0.000000
RightUpLeg -75.664501 3.980277 11.467654
RightLeg 111.041400 -0.000000 -0.000000
RightFoot 21.866396 -33.420061 22.837776
RightToeBase 7.849223 -0.000000 -0.000000
851
root 6.782568 32.487191 2.953911 -11.353106 -1.714733 -6.992352
Spine 9.351746 10.872838 10.902583
Head 11.386784 -11.443607 -2.748924
LeftShoulder -17.452633 4.968832 27.514040
LeftArm -11.166778 -6.401673 -84.060709
LeftForeArm -6.527188 -0.000000 116.515248
LeftHand 11.554700 -0.000000 -4.760032
LeftHandThumb1 -26.253704 0.000000 33.147579
RightShoulder -20.611103 -19.870418 -25.668036
RightArm 7.075694 -19.062584 92.747932
RightForeArm -8.174621 0.000000 16.268378
RightHand 17.922743 -0.000000 8.167661
RightHandThumb1 -24.326973 -0.000000 -32.862282
LeftUpLeg 14.284961 4.471559 -2.054165
LeftLeg 5.966564 -0.000000 -0.000000
LeftFoot -19.821958 17.517624 -15.135748
LeftToeBase 16.388158 -0.000000 -0.000000
RightUpLeg -75.448145 3.950327 11.757624
RightLeg 111.012947 -0.000000 -0.000000
RightFoot 21.714746 -33.496749 23.141517
RightToeBase 8.896525 -0.000000 -0.000000
852
root 6.775674 32.504479 2.965432 -11.260226 -2.038994 -6.914778
Spine 9.220692 11.219679 10.772388
Head 11.464812 -11.520912 -2.592753
LeftShoulder -17.503012 5.048377 27.539060
LeftArm -11.149256 -6.411565 -84.154743
LeftForeArm -6.393265 0.000000 116.558469
LeftHand 11.476083 -0.000000 -4.933318
LeftHandThumb1 -26.253704 0.000000 33.147579
RightShoulder -20.595647 -19.813564 -25.620795
RightArm 7.009678 -19.171686 92.923623
RightForeArm -8.147820 -0.000000 16.303675
RightHand 17.950721 -0.000000 8.190263
RightHandThumb1 -24.326973 -0.000000 -32.862282
LeftUpLeg 14.353241 3.808235 -2.164652
LeftLeg 5.851275 -0.000000 -0.000000
LeftFoot -19.538437 17.344508 -15.324358
LeftToeBase 16.212873 -0.000000 -0.000000
RightUpLeg -75.207039 3.994956 12.081589
RightLeg 110.967959 -0.000000 -0.000000
RightFoot 21.837743 -33.433307 22.786322
RightToeBase 9.121363 -0.000000 -0.000000
853
root 6.772881 32.522802 2.971596 -11.146030 -2.301546 -6.862480
Spine 9.064287 11.524311 10.657753
Head 11.535707 -11.626763 -2.421638
LeftShoulder -17.660503 5.474408 27.462168
LeftArm -10.670843 -6.338527 -84.367317
LeftForeArm -6.219405 0.000000 116.547573
LeftHand 11.418556 -0.000000 -5.104796
LeftHandThumb1 -26.253704 0.000000 33.147579
RightShoulder -20.580806 -19.811650 -25.560028
RightArm 7.009742 -19.315055 93.057399
RightForeArm -8.134211 0.000000 16.344089
RightHand 17.906254 -0.000000 8.169080
RightHandThumb1 -24.326973 -0.000000 -32.862282
LeftUpLeg 14.359546 3.114631 -2.278997
LeftLeg 5.774574 -0.000000 -0.000000
LeftFoot -19.323636 17.346552 -15.518422
LeftToeBase 15.187451 -0.000000 -0.000000
RightUpLeg -74.987849 3.955652 12.414974
RightLeg 110.895048 -0.000000 -0.000000
RightFoot 21.839125 -33.357543 22.593124
RightToeBase 8.981576 -0.000000 -0.000000
854
root 6.771135 32.538075 2.971523 -10.980639 -2.511083 -6.811735
Spine 8.856693 11.819608 10.548139
Head 11.587513 -11.733466 -2.320784
LeftShoulder -17.648536 5.460477 27.508290
LeftArm -10.740397 -6.327077 -84.501817
LeftForeArm -6.057351 0.000000 116.602342
LeftHand 11.400759 0.000000 -5.227462
LeftHandThumb1 -26.253704 0.000000 33.147579
RightShoulder -20.618498 -19.843797 -25.548732
RightArm 7.081436 -19.553266 93.218122
RightForeArm -8.058832 0.000000 16.277225
RightHand 17.842941 -0.000000 7.987577
RightHandThumb1 -24.326973 -0.000000 -32.862282
LeftUpLeg 14.276813 2.580968 -2.364970
LeftLeg 5.692529 -0.000000 -0.000000
LeftFoot -19.097698 17.228765 -15.692567
LeftToeBase 15.458006 -0.000000 -0.000000
RightUpLeg -74.852683 3.892728 12.732153
RightLeg 110.814875 -0.000000 -0.000000
RightFoot 21.731420 -33.447125 22.637465
RightToeBase 9.385721 -0.000000 -0.000000
855
root 6.765623 32.552268 2.972542 -10.824708 -2.712557 -6.783237
Spine 8.661804 12.082442 10.456584
Head 11.617062 -11.809903 -2.238846
LeftShoulder -17.638621 5.466067 27.543846
LeftArm -10.819024 -6.329114 -84.602394
LeftForeArm -5.854229 0.000000 116.699438
LeftHand 11.293270 -0.000000 -5.351319
LeftHandThumb1 -26.253704 0.000000 33.147579
RightShoulder -20.600159 -19.811560 -25.576312
RightArm 7.014156 -19.705605 93.411218
RightForeArm -8.118954 -0.000000 16.329185
RightHand 17.814737 0.000000 8.109026
RightHandThumb1 -24.326973 -0.000000 -32.862282
LeftUpLeg 14.207618 2.184326 -2.411556
LeftLeg 5.601028 -0.000000 -0.000000
LeftFoot -18.921323 17.181340 -15.832533
LeftToeBase 15.439526 -0.000000 -0.000000
RightUpLeg -74.715138 3.862740 13.054036
RightLeg 110.742900 -0.000000 -0.000000
RightFoot 21.644107 -33.489745 22.596406
RightToeBase 9.317735 -0.000000 -0.000000
